<svg id="Grupo_256" data-name="Grupo 256" xmlns="http://www.w3.org/2000/svg" width="168.004" height="40" viewBox="0 0 168.004 40">
                <path id="Caminho_106" data-name="Caminho 106" d="M7.037,5.937c-.006.006-.006.012-.011.017.114-.076.222-.157.336-.233C7.254,5.791,7.145,5.861,7.037,5.937ZM30.9,29.524A58.967,58.967,0,0,0,20.073,28c-.136,0,8.131-.508,0-1.108s-8.138-3.732-8.138-12.184c0-2.937-6.3-6.379-4.909-8.746A16.019,16.019,0,0,0,0,19.193,15.277,15.277,0,0,0,14.411,34.637l.285.006,13.106.047A3.12,3.12,0,0,0,30.9,31.542C30.918,31.542,30.9,29.524,30.9,29.524Z" transform="translate(0 1.907)" fill="#fff" opacity="0.5"></path>
                <path id="Caminho_107" data-name="Caminho 107" d="M19.1,0A15.677,15.677,0,0,0,5.3,7.845c2.576-1.745,5.391,2.048,8.69,2.124,8.553.186,5.111.1,5.111,8.861l10.052,12.6,1.738.006a3.12,3.12,0,0,0,3.094-3.147V15.936C33.98,7.17,27.65.184,19.1,0ZM5.239,7.938c.017-.035.04-.064.057-.093a.006.006,0,0,0-.006.006C5.273,7.874,5.256,7.909,5.239,7.938Z" transform="translate(1.746 0)" fill="#fff" opacity="0.5"></path>
                <path id="Caminho_108" data-name="Caminho 108" d="M14.8,3.877A15.331,15.331,0,0,0,5.829,6.553a15.939,15.939,0,0,0-2.205,8.091A15.277,15.277,0,0,0,18.034,30.088h.348l11.305.052V19.81C29.687,11.05,23.357,4.064,14.8,3.877Z" transform="translate(1.208 1.291)" fill="#fff"></path>
                <g id="Grupo_243" data-name="Grupo 243">
                  <path id="Caminho_109" data-name="Caminho 109" d="M82.562,12.3a5.127,5.127,0,0,1,5.066,5.171v5.171H82.562a5.172,5.172,0,0,1,0-10.342Zm0-3.182a8.355,8.355,0,0,0,0,16.706h6.627a1.576,1.576,0,0,0,1.561-1.594V17.473A8.278,8.278,0,0,0,82.562,9.12Z" transform="translate(24.796 3.04)" fill="#fff"></path>
                  <path id="Caminho_110" data-name="Caminho 110" d="M52.8,12.6a5.172,5.172,0,1,1-5.066,5.171A5.126,5.126,0,0,1,52.8,12.6Zm0-3.182a8.355,8.355,0,1,0,8.183,8.353A8.27,8.27,0,0,0,52.8,9.421Z" transform="translate(14.874 3.141)" fill="#fff"></path>
                  <path id="Caminho_111" data-name="Caminho 111" d="M72.7,9.685a5.742,5.742,0,0,0-4.547,1.908,5.753,5.753,0,0,0-4.547-1.908,6.017,6.017,0,0,0-5.55,6.119V24a1.562,1.562,0,1,0,3.123,0V15.722a2.812,2.812,0,0,1,2.353-2.839,2.734,2.734,0,0,1,3.066,2.74v8.027a1.562,1.562,0,1,0,3.123,0V15.722a2.812,2.812,0,0,1,2.353-2.839,2.734,2.734,0,0,1,3.066,2.74v8.37a1.562,1.562,0,1,0,3.123,0V15.8A6.035,6.035,0,0,0,72.7,9.685Z" transform="translate(19.355 3.226)" fill="#fff"></path>
                  <path id="Caminho_112" data-name="Caminho 112" d="M39.014,26.072c-3.2-.332-4.963-1.553-5.909-3.4a1.576,1.576,0,0,1,1.573-2.251H34.7a1.65,1.65,0,0,1,1.236.861c.547.919,1.744,1.443,3.385,1.611,1.926.2,3.647-.128,4.285-.8a1.229,1.229,0,0,0,.262-1.14c-.211-1.489-3.18-1.652-3.96-1.611-2.251.151-6.251-.494-6.843-3.845a4.617,4.617,0,0,1,1.14-3.973,7.72,7.72,0,0,1,6.45-2.082c3.106.32,4.861,1.483,5.823,3.234a1.607,1.607,0,0,1-1.51,2.408,1.65,1.65,0,0,1-1.237-.861c-.547-.919-1.744-1.443-3.385-1.611A4.767,4.767,0,0,0,36.5,13.688a1.383,1.383,0,0,0-.359,1.251c.194,1.093,2.741,1.285,3.6,1.233,2.444-.128,6.7.634,7.225,4.334a4.416,4.416,0,0,1-1.094,3.8C43.954,26.34,40.439,26.223,39.014,26.072Z" transform="translate(10.981 3.131)" fill="#fff"></path>
                </g>
                <g id="Grupo_242" data-name="Grupo 242">
                  <path id="Caminho_113" data-name="Caminho 113" d="M109.8,12.3a5.126,5.126,0,0,1,5.065,5.171v5.171H109.8a5.172,5.172,0,0,1,0-10.342Zm0-3.182a8.355,8.355,0,0,0,0,16.706h6.627a1.577,1.577,0,0,0,1.561-1.594V17.473A8.279,8.279,0,0,0,109.8,9.12Z" transform="translate(33.876 3.04)" fill="#fff"></path>
                  <path id="Caminho_114" data-name="Caminho 114" d="M88.162,18.966v15.88a1.562,1.562,0,1,0,3.122,0V24.324a8.055,8.055,0,0,0,5.066,1.8,8.355,8.355,0,1,0-8.183-8.353v1.193ZM97.006,22.9a5.171,5.171,0,1,1,4.365-4.45A5.128,5.128,0,0,1,97.006,22.9Z" transform="translate(29.39 3.141)" fill="#fff"></path>
                  <path id="Caminho_115" data-name="Caminho 115" d="M127.963,9.2A1.576,1.576,0,0,0,126.4,10.8v8.091A4.037,4.037,0,0,1,122.773,23a3.937,3.937,0,0,1-4.165-3.967V10.792a1.562,1.562,0,1,0-3.123,0v8.056a7.225,7.225,0,0,0,6.569,7.323,6.866,6.866,0,0,0,4.336-1.2v4.665a4.037,4.037,0,0,1-3.629,4.107,3.937,3.937,0,0,1-4.165-3.967,1.576,1.576,0,0,0-1.561-1.594h-.171a1.4,1.4,0,0,0-1.384,1.413,7.221,7.221,0,0,0,6.369,7.306,7.081,7.081,0,0,0,7.659-7.131V10.792A1.55,1.55,0,0,0,127.963,9.2Z" transform="translate(38.497 3.066)" fill="#fff"></path>
                </g>
              </svg>
